<?xml version="1.0" encoding="UTF-8" standalone="no"?>
<!-- Created with Inkscape (http://www.inkscape.org/) -->

<svg
   width="7.4083333mm"
   height="7.4083333mm"
   viewBox="0 0 7.4083333 7.4083333"
   version="1.1"
   id="svg1"
   xmlns="http://www.w3.org/2000/svg"
   xmlns:svg="http://www.w3.org/2000/svg">
  <defs
     id="defs1" />
  <path
     id="path2"
     style="fill:#b3b3b3;stroke:#b3b3b3;stroke-width:0.0595756"
     d="M 3.0605309,0.81999123 A 0.65437022,0.61020745 0 0 0 2.8643934,0.88484673 L 0.70784388,2.0338722 A 0.65437017,0.6102074 0 0 0 0.37810732,2.5609559 l -0.011133,2.3161397 a 0.65437017,0.6102074 0 0 0 0.0514061,0.2260403 L 3.0939303,3.6714503 A 0.23539001,0.23710235 1.6781747e-5 0 0 3.2184574,3.4477632 Z M 3.7256389,1 3.8215769,3.2280473 a 0.09488119,0.09557141 1.6781501e-5 0 0 0.1397844,0.080003 L 5.8907099,2.2605011 A 0.65437017,0.6102074 0 0 0 5.6640599,2.0546089 Z M 5.9870616,2.9137674 4.0715939,3.9161682 A 0.23536536,0.23707753 1.6781675e-5 0 0 3.9450049,4.1388257 L 4.0542757,6.2767219 5.6479781,5.4275636 A 0.6543701,0.6102074 0 0 0 5.9775767,4.9004799 Z M 3.2576305,4.283097 A 0.09302248,0.09369917 1.6781432e-5 0 0 3.1963285,4.293098 L 0.95717357,5.5281566 a 0.27181695,0.27379429 1.6781617e-5 0 1 -0.022403,0.010884 L 2.8370419,6.5737967 A 0.65437022,0.61020745 0 0 0 3.405662,6.6092387 L 3.334052,4.3722193 A 0.09302248,0.09369917 1.6781432e-5 0 0 3.2576305,4.283097 Z" />
</svg>
